<?xml version="1.0" encoding="UTF-8" standalone="no"?>
<svg
   xml:space="preserve"
   viewBox="0 0 653.29999 204.39999"
   version="1.1"
   id="svg1175"
   sodipodi:docname="usdr_logo_white_wide.svg"
   width="653.29999"
   height="204.39999"
   inkscape:version="1.1.1 (3bf5ae0d25, 2021-09-20)"
   xmlns:inkscape="http://www.inkscape.org/namespaces/inkscape"
   xmlns:sodipodi="http://sodipodi.sourceforge.net/DTD/sodipodi-0.dtd"
   xmlns="http://www.w3.org/2000/svg"
   xmlns:svg="http://www.w3.org/2000/svg"><defs
   id="defs1179" /><sodipodi:namedview
   id="namedview1177"
   pagecolor="#ebebeb"
   bordercolor="#666666"
   borderopacity="1.0"
   inkscape:pageshadow="2"
   inkscape:pageopacity="0"
   inkscape:pagecheckerboard="true"
   showgrid="false"
   fit-margin-top="0"
   fit-margin-left="0"
   fit-margin-right="0"
   fit-margin-bottom="0"
   inkscape:zoom="1.370915"
   inkscape:cx="97.744934"
   inkscape:cy="108.68653"
   inkscape:window-width="1920"
   inkscape:window-height="1011"
   inkscape:window-x="0"
   inkscape:window-y="32"
   inkscape:window-maximized="1"
   inkscape:current-layer="svg1175" />
  <switch
   id="switch1173"
   transform="translate(0,-197.8)">
    <g
   fill="#ffffff"
   id="g1171">
      <path
   d="m 200.3,294.3 h -33.2 v -95.6 h 30.4 c 11.3,0 18.5,2.5 23,8.2 4,5 5.5,16.6 5.5,37.6 0,24.7 -0.6,34.2 -5.5,41 -3.9,5.8 -9.7,8.8 -20.2,8.8 z m 2.5,-49.9 c 0,-3.8 -0.3,-15.5 -1.1,-21.4 -0.4,-2.5 -2,-4.5 -5.2,-4.5 h -5.3 v 57.6 h 5.9 c 2.5,0 4.4,-1.8 4.8,-4.3 0.9,-6.2 0.9,-10.3 0.9,-27.4 z m 29.8,49.9 v -95.6 h 25 v 95.6 z m 75.3,0 -1.3,-3.9 c -3,3 -8.9,4.9 -15.3,4.9 -13.7,0 -23,-5.9 -25.4,-18.7 -1.1,-5.7 -2,-15.7 -2,-29.6 0,-9.6 0.1,-23 2.4,-31.1 2.4,-7.9 9.7,-18.1 29.1,-18.1 19.5,0 26.5,9.3 28.7,19.1 0.6,2.6 1.1,15.2 1.1,16.5 h -23.9 c 0,-1.4 -0.3,-7 -0.9,-10.8 -0.4,-2.4 -2,-4.2 -4.7,-4.2 -2.9,0 -4.7,1.5 -5.2,4.5 -1,6.5 -1.3,11.3 -1.3,23.9 0,7.5 0.6,19.1 1.3,22.6 0.8,4.4 2.6,6.4 6.2,6.4 3.8,0 5.8,-2.5 5.8,-6.9 v -10.8 h -7.9 v -20 h 31.2 v 33.8 c 0,11.1 0.3,22.4 0.3,22.4 H 308 Z m 24.4,0 v -95.6 h 25 v 95.6 z m 70.2,-73.5 v 73.5 H 377.8 V 220.8 H 362.5 V 198.7 H 418 v 22.1 z m 36.4,73.5 H 414.6 L 431,198.7 h 34.8 l 14.8,95.6 H 456 l -3.1,-23.5 H 442 Z m 9.8,-56.6 c -1,-5.9 -1.3,-12.3 -1.3,-12.3 0,0 -0.1,6.3 -1.1,12.3 -0.4,2.4 -2.4,15.3 -2.4,15.3 h 6.8 c 0.1,0 -1.6,-13 -2,-15.3 z m 36.6,56.6 v -95.6 h 24.9 v 73.7 h 27 v 21.9 z m -261,56.4 c -1.9,4.3 -4.3,6.7 -6.8,7.8 l 12.1,42.4 h -25 l -8.8,-36.5 h -4.9 v 36.5 h -23.6 v -95.6 h 36.2 c 8.3,0 14.7,2.8 18.4,7.9 3.4,4.5 5.3,11.6 5.3,21 -0.3,7.5 -1.4,12.7 -2.9,16.5 z m -22.5,-20.5 c -0.8,-1.9 -2.5,-3.5 -4.8,-3.5 h -5.9 v 18.4 l 6.3,-0.1 c 1.6,0 3.8,-0.9 4.2,-2.3 0.5,-1.3 1.1,-4 1.1,-6.2 0,-2.4 -0.5,-5.3 -0.9,-6.3 z m 31.2,70.6 v -95.6 h 50.9 v 22.1 h -26.7 v 14.8 h 25.2 v 21 h -25.2 v 16 h 26.9 v 21.6 H 233 Z m 83,1.4 c -17.7,0 -27.7,-7.3 -28.8,-19.9 -0.4,-3.9 -0.3,-8.6 -0.3,-9.9 H 310 c 0,1.1 0.1,3.8 0.4,6.4 0.3,2.8 2.1,4 5.4,4 3.5,0 5,-2.3 5,-6 0,-5.2 -2.1,-7.8 -9.2,-12.8 -1.4,-1 -7.4,-5.4 -10.3,-7.4 -9.1,-6.4 -14.5,-12.1 -14.5,-26.8 0,-16 11.2,-25.7 29.1,-25.7 18.5,0 26.4,9.9 27.9,21.6 0.5,2.8 0.6,8.1 0.6,9.4 h -23.3 c 0,-1.1 -0.1,-6.3 -0.3,-6.7 -0.4,-2.6 -1.8,-4.2 -5,-4.2 -3.4,0 -5.4,1.6 -5.4,5 0,5.5 3.6,7.9 9.6,12.5 2.1,1.5 8.7,6.4 10.3,7.7 9.1,6.8 14.6,12.7 14.6,26 0,17 -10,26.8 -28.9,26.8 z m 87.2,-42.6 c -4.2,4.5 -10.4,6.7 -18.7,7 -2.6,0.3 -10.8,0.1 -10.8,0.1 v 34.1 h -24.5 v -95.6 h 35.6 c 8.4,0 14.5,2.3 18.7,7.2 3.9,4.7 6.2,12.3 6.2,23.6 -0.1,11.3 -2.3,18.8 -6.5,23.6 z m -18.9,-28.8 c -0.6,-2.1 -1.8,-3.8 -4.3,-3.8 h -6.3 v 20 h 5.9 c 3.5,0 4.5,-1.1 5.2,-4 0.4,-1.9 0.4,-3.4 0.4,-5.8 0,-2.4 -0.5,-4.4 -0.9,-6.4 z m 88.8,-5.9 c 0.9,4.2 1.5,12 1.5,27 0,13 -0.4,22.9 -2.3,30.4 -3.8,14.3 -12.3,19.7 -29.1,19.7 -17.6,0 -25.9,-6.5 -29.1,-20 -1.9,-7.5 -1.9,-17.5 -1.9,-29.3 0,-13.6 0.4,-21.3 1.4,-26.5 2.8,-12.6 9.8,-22 29.6,-22 18.3,0 27.6,8.6 29.9,20.7 z M 449,376.3 c 0.9,-5.2 1.3,-11.7 1.3,-23.1 0,-6.3 -0.1,-19 -0.9,-22.5 -0.8,-3.6 -2,-5.4 -5.7,-5.4 -3.8,0 -4.9,1.9 -5.7,5.5 -0.6,3.3 -1,16 -1,22.4 0,11.6 0.5,18.9 1.3,23.3 0.5,2.8 2,5 5.4,5 3.1,0 4.8,-2.5 5.3,-5.2 z m 66.4,24.5 -13.6,-37.1 v 37.1 h -22.6 v -95.6 h 20.5 l 13.6,37.9 v -37.9 h 22.9 v 95.6 z m 53.6,1.4 c -17.7,0 -27.7,-7.3 -28.8,-19.9 -0.4,-3.9 -0.3,-8.6 -0.3,-9.9 H 563 c 0,1.1 0.1,3.8 0.4,6.4 0.3,2.8 2.1,4 5.4,4 3.5,0 5,-2.3 5,-6 0,-5.2 -2.1,-7.8 -9.2,-12.8 -1.4,-1 -7.4,-5.4 -10.3,-7.4 -9.1,-6.4 -14.5,-12.1 -14.5,-26.8 0,-16 11.2,-25.7 29.1,-25.7 18.5,0 26.4,9.9 27.9,21.6 0.5,2.8 0.6,8.1 0.6,9.4 h -23.3 c 0,-1.1 -0.1,-6.3 -0.3,-6.7 -0.4,-2.6 -1.8,-4.2 -5,-4.2 -3.4,0 -5.4,1.6 -5.4,5 0,5.5 3.6,7.9 9.6,12.5 2.1,1.5 8.7,6.4 10.3,7.7 9.1,6.8 14.6,12.7 14.6,26 0.1,17 -9.9,26.8 -28.9,26.8 z m 33.2,-1.4 v -95.6 h 50.9 v 22.1 h -26.7 v 14.8 h 25.2 v 21 h -25.2 v 16 h 26.9 v 21.6 H 602.2 Z M 0,197.8 v 203 h 151.5 v -203 z m 105.5,13.1 c 16,0 22.9,10.2 24.2,22.1 0.4,2.8 0.5,8.2 0.5,9.7 h -20.1 c 0,-1.1 -0.1,-6.5 -0.3,-6.8 -0.3,-2.6 -1.5,-4.3 -4.4,-4.3 -2.9,0 -4.7,1.8 -4.7,5.2 0,5.7 3.1,8.1 8.3,12.7 1.9,1.6 7.4,6.5 8.9,7.8 7.9,6.9 12.7,13 12.7,26.5 0.1,17.2 -8.6,27.2 -25,27.2 -15.3,0 -23.9,-7.5 -24.9,-20.4 -0.3,-4 -0.3,-8.7 -0.3,-10.2 h 20.1 c 0,1.1 0.1,3.8 0.3,6.7 0.1,2.9 1.9,4.2 4.7,4.2 3,0 4.4,-2.3 4.4,-6.2 0,-5.3 -1.9,-7.9 -8.1,-13.1 -1.3,-1 -6.4,-5.5 -8.9,-7.5 -7.9,-6.7 -12.6,-12.3 -12.6,-27.4 0.1,-16.3 9.8,-26.2 25.2,-26.2 z M 20.3,212 h 21 v 71.6 c 0,4.3 1.6,6.3 4.8,6.3 3,0 4.7,-2.1 4.7,-6.2 V 212 h 21 v 71.7 c 0,17.6 -9.9,27 -25.4,27 -14.8,0 -26,-8.3 -26,-27.4 C 20.3,282 20.3,212 20.3,212 Z M 137.2,382.6 H 14.1 v -13.3 h 123.2 v 13.3 z m 0,-23.4 H 14.1 v -13.3 h 123.2 v 13.3 z m 0,-23.3 H 14.1 v -13.3 h 123.2 v 13.3 z"
   id="path1169" />
    </g>
  </switch>
</svg>
