<?xml version="1.0" encoding="UTF-8" standalone="no"?>
<svg
   xml:space="preserve"
   viewBox="0 0 519.40001 162.5"
   version="1.1"
   id="svg1295"
   sodipodi:docname="usdr_logo_standard_wide.svg"
   width="519.40002"
   height="162.5"
   inkscape:version="1.1.1 (3bf5ae0d25, 2021-09-20)"
   xmlns:inkscape="http://www.inkscape.org/namespaces/inkscape"
   xmlns:sodipodi="http://sodipodi.sourceforge.net/DTD/sodipodi-0.dtd"
   xmlns="http://www.w3.org/2000/svg"
   xmlns:svg="http://www.w3.org/2000/svg"><defs
   id="defs1299" /><sodipodi:namedview
   id="namedview1297"
   pagecolor="#ffffff"
   bordercolor="#666666"
   borderopacity="1.0"
   inkscape:pageshadow="2"
   inkscape:pageopacity="0.0"
   inkscape:pagecheckerboard="0"
   showgrid="false"
   fit-margin-top="0"
   fit-margin-left="0"
   fit-margin-right="0"
   fit-margin-bottom="0"
   inkscape:zoom="2.4691833"
   inkscape:cx="129.59751"
   inkscape:cy="85.858348"
   inkscape:window-width="1920"
   inkscape:window-height="1011"
   inkscape:window-x="0"
   inkscape:window-y="32"
   inkscape:window-maximized="1"
   inkscape:current-layer="svg1295" />
  <path
   fill="#010101"
   d="M 159.2,76.7 H 132.8 V 0.7 H 157 c 9,0 14.7,2 18.3,6.5 3.2,4 4.4,13.2 4.4,29.9 0,19.6 -0.5,27.2 -4.4,32.6 -3.1,4.6 -7.7,7 -16.1,7 z m 2,-39.7 c 0,-3 -0.2,-12.3 -0.9,-17 -0.3,-2 -1.6,-3.6 -4.1,-3.6 H 152 v 45.8 h 4.7 c 2,0 3.5,-1.4 3.8,-3.4 0.7,-4.9 0.7,-8.2 0.7,-21.8 z m 23.7,39.7 v -76 h 19.9 v 76 z m 59.9,0 -1,-3.1 c -2.4,2.4 -7.1,3.9 -12.2,3.9 -10.9,0 -18.3,-4.7 -20.2,-14.9 -0.9,-4.5 -1.6,-12.5 -1.6,-23.5 0,-7.6 0.1,-18.3 1.9,-24.7 1.9,-6.3 7.7,-14.4 23.1,-14.4 15.5,0 21.1,7.4 22.8,15.2 0.5,2.1 0.9,12.1 0.9,13.1 h -19 c 0,-1.1 -0.2,-5.6 -0.7,-8.6 -0.3,-1.9 -1.6,-3.3 -3.7,-3.3 -2.3,0 -3.7,1.2 -4.1,3.6 -0.8,5.2 -1,9 -1,19 0,6 0.5,15.2 1,18 0.6,3.5 2.1,5.1 4.9,5.1 3,0 4.6,-2 4.6,-5.5 V 48 h -6.3 V 32.1 H 259 V 59 c 0,8.8 0.2,17.8 0.2,17.8 h -14.4 z m 19.4,0 v -76 h 19.9 v 76 z M 320,18.3 V 76.7 H 300.4 V 18.3 H 288.2 V 0.7 h 44.1 v 17.6 z m 28.9,58.4 h -19.3 l 13,-76 h 27.7 l 11.8,76 H 362.5 L 360,58 h -8.6 z m 7.8,-45 c -0.8,-4.7 -1,-9.8 -1,-9.8 0,0 -0.1,5 -0.9,9.8 l -1.9,12.2 h 5.4 c 0.1,0 -1.3,-10.4 -1.6,-12.2 z m 29.1,45 v -76 h 19.8 v 58.6 h 21.5 v 17.4 z m -207.5,44.8 c -1.5,3.4 -3.4,5.3 -5.4,6.2 l 9.6,33.7 h -19.9 l -7,-29 h -3.9 v 29 h -18.8 v -76 h 28.8 c 6.6,0 11.7,2.2 14.6,6.3 2.7,3.6 4.2,9.2 4.2,16.7 -0.1,6 -1,10.1 -2.2,13.1 z m -17.9,-16.3 c -0.6,-1.5 -2,-2.8 -3.8,-2.8 h -4.7 V 117 l 5,-0.1 c 1.3,0 3,-0.7 3.3,-1.8 0.4,-1 0.9,-3.2 0.9,-4.9 0,-1.9 -0.4,-4.2 -0.7,-5 z m 24.8,56.2 v -76 h 40.5 V 103 h -21.2 v 11.8 h 20 v 16.7 h -20 v 12.7 h 21.4 v 17.2 z m 66,1.1 c -14.1,0 -22,-5.8 -22.9,-15.8 -0.3,-3.1 -0.2,-6.8 -0.2,-7.9 h 18.4 c 0,0.9 0.1,3 0.3,5.1 0.2,2.2 1.7,3.2 4.3,3.2 2.8,0 4,-1.8 4,-4.8 0,-4.1 -1.7,-6.2 -7.3,-10.2 -1.1,-0.8 -5.9,-4.3 -8.2,-5.9 -7.2,-5.1 -11.5,-9.6 -11.5,-21.3 0,-12.7 8.9,-20.4 23.1,-20.4 14.7,0 21,7.9 22.2,17.2 0.4,2.2 0.5,6.4 0.5,7.5 h -18.5 c 0,-0.9 -0.1,-5 -0.2,-5.3 -0.3,-2.1 -1.4,-3.3 -4,-3.3 -2.7,0 -4.3,1.3 -4.3,4 0,4.4 2.9,6.3 7.6,9.9 1.7,1.2 6.9,5.1 8.2,6.1 7.2,5.4 11.6,10.1 11.6,20.7 -0.1,13.4 -8.1,21.2 -23.1,21.2 z m 69.3,-33.9 c -3.3,3.6 -8.3,5.3 -14.9,5.6 -2.1,0.2 -8.6,0.1 -8.6,0.1 v 27.1 h -19.5 v -76 h 28.3 c 6.7,0 11.5,1.8 14.9,5.7 3.1,3.7 4.9,9.8 4.9,18.8 0,8.9 -1.7,14.9 -5.1,18.7 z m -15,-22.9 c -0.5,-1.7 -1.4,-3 -3.4,-3 h -5 v 15.9 h 4.7 c 2.8,0 3.6,-0.9 4.1,-3.2 0.3,-1.5 0.3,-2.7 0.3,-4.6 0,-1.9 -0.4,-3.5 -0.7,-5.1 z m 70.6,-4.7 c 0.7,3.3 1.2,9.5 1.2,21.5 0,10.3 -0.3,18.2 -1.8,24.2 -3,11.4 -9.8,15.7 -23.1,15.7 -14,0 -20.6,-5.2 -23.1,-15.9 -1.5,-6 -1.5,-13.9 -1.5,-23.3 0,-10.8 0.3,-16.9 1.1,-21.1 2.2,-10 7.8,-17.5 23.5,-17.5 14.5,0 21.9,6.8 23.7,16.4 z m -19.2,40.9 c 0.7,-4.1 1,-9.3 1,-18.4 0,-5 -0.1,-15.1 -0.7,-17.9 -0.6,-2.9 -1.6,-4.3 -4.5,-4.3 -3,0 -3.9,1.5 -4.5,4.4 -0.5,2.6 -0.8,12.7 -0.8,17.8 0,9.2 0.4,15 1,18.5 0.4,2.2 1.6,4 4.3,4 2.5,0 3.8,-2 4.2,-4.1 z m 52.8,19.5 -10.8,-29.5 v 29.5 h -18 v -76 h 16.3 L 408,115.5 V 85.4 h 18.2 v 76 z m 42.6,1.1 c -14.1,0 -22,-5.8 -22.9,-15.8 -0.3,-3.1 -0.2,-6.8 -0.2,-7.9 h 18.4 c 0,0.9 0.1,3 0.3,5.1 0.2,2.2 1.7,3.2 4.3,3.2 2.8,0 4,-1.8 4,-4.8 0,-4.1 -1.7,-6.2 -7.3,-10.2 -1.1,-0.8 -5.9,-4.3 -8.2,-5.9 -7.2,-5.1 -11.5,-9.6 -11.5,-21.3 0,-12.7 8.9,-20.4 23.1,-20.4 14.7,0 21,7.9 22.2,17.2 0.4,2.2 0.5,6.4 0.5,7.5 h -18.5 c 0,-0.9 -0.1,-5 -0.2,-5.3 -0.3,-2.1 -1.4,-3.3 -4,-3.3 -2.7,0 -4.3,1.3 -4.3,4 0,4.4 2.9,6.3 7.6,9.9 1.7,1.2 6.9,5.1 8.2,6.1 7.2,5.4 11.6,10.1 11.6,20.7 0,13.4 -8,21.2 -23.1,21.2 z m 26.4,-1.1 v -76 h 40.5 V 103 H 498 v 11.8 h 20 v 16.7 h -20 v 12.7 h 21.4 v 17.2 z M 0,0 H 120.4 V 161.4 H 0 Z"
   id="path1289" />
  <path
   fill="#ffffff"
   d="M 36.8,89.8 C 25,89.8 16.1,83.2 16.1,68 V 11.3 h 16.7 v 56.9 c 0,3.4 1.3,5 3.8,5 2.4,0 3.7,-1.7 3.7,-4.9 v -57 H 57 v 57 c 0,14 -7.9,21.5 -20.2,21.5 z M 84,90 C 71.8,90 65,84 64.2,73.8 64,70.6 64,66.9 64,65.7 h 16 c 0,0.9 0.1,3 0.2,5.3 0.1,2.3 1.5,3.3 3.7,3.3 2.4,0 3.5,-1.8 3.5,-4.9 0,-4.2 -1.5,-6.3 -6.4,-10.4 -1,-0.8 -5.1,-4.4 -7.1,-6 -6.3,-5.3 -10,-9.8 -10,-21.8 0,-12.9 7.7,-20.8 20,-20.8 12.7,0 18.2,8.1 19.2,17.6 0.3,2.2 0.4,6.5 0.4,7.7 h -16 c 0,-0.9 -0.1,-5.2 -0.2,-5.4 -0.2,-2.1 -1.2,-3.4 -3.5,-3.4 -2.3,0 -3.7,1.4 -3.7,4.1 0,4.5 2.5,6.4 6.6,10.1 1.5,1.3 5.9,5.2 7.1,6.2 6.3,5.5 10.1,10.3 10.1,21.1 C 104,82.1 97.1,90 84,90 Z"
   id="path1291" />
  <path
   fill="#0b80fe"
   d="m 11.2,99.2 h 97.9 v 10.6 H 11.2 Z m 0,18.5 h 97.9 v 10.6 H 11.2 Z m 0,18.6 h 97.9 v 10.6 H 11.2 Z"
   id="path1293" />
</svg>
